<svg width="1200" height="560" viewBox="0 0 1200 560" fill="none" xmlns="http://www.w3.org/2000/svg">
  <defs>
    <linearGradient id="bg" x1="0" y1="0" x2="1200" y2="560" gradientUnits="userSpaceOnUse">
      <stop stop-color="#0A0A14"/>
      <stop offset="0.45" stop-color="#0D0B15"/>
      <stop offset="1" stop-color="#07060A"/>
    </linearGradient>
    <radialGradient id="glow" cx="0" cy="0" r="1" gradientUnits="userSpaceOnUse" gradientTransform="translate(360 150) rotate(35) scale(520 420)">
      <stop stop-color="#FF003C" stop-opacity="0.55"/>
      <stop offset="1" stop-color="#FF003C" stop-opacity="0"/>
    </radialGradient>
    <linearGradient id="line" x1="120" y1="420" x2="1080" y2="160" gradientUnits="userSpaceOnUse">
      <stop stop-color="#FF003C" stop-opacity="0.95"/>
      <stop offset="0.55" stop-color="#FFFFFF" stop-opacity="0.42"/>
      <stop offset="1" stop-color="#FF003C" stop-opacity="0.65"/>
    </linearGradient>
    <filter id="soft" x="-50" y="-50" width="1300" height="760" filterUnits="userSpaceOnUse" color-interpolation-filters="sRGB">
      <feGaussianBlur stdDeviation="18" result="blur"/>
      <feColorMatrix in="blur" type="matrix"
        values="1 0 0 0 0
                0 1 0 0 0
                0 0 1 0 0
                0 0 0 0.9 0"/>
      <feBlend mode="normal" in2="SourceGraphic" result="shape"/>
    </filter>
  </defs>

  <!-- Background -->
  <rect x="0" y="0" width="1200" height="560" rx="26" fill="url(#bg)"/>
  <rect x="0" y="0" width="1200" height="560" rx="26" fill="url(#glow)"/>

  <!-- Grid -->
  <g opacity="0.18">
    <path d="M80 70H1120" stroke="white" stroke-opacity="0.28"/>
    <path d="M80 130H1120" stroke="white" stroke-opacity="0.16"/>
    <path d="M80 190H1120" stroke="white" stroke-opacity="0.16"/>
    <path d="M80 250H1120" stroke="white" stroke-opacity="0.16"/>
    <path d="M80 310H1120" stroke="white" stroke-opacity="0.16"/>
    <path d="M80 370H1120" stroke="white" stroke-opacity="0.16"/>
    <path d="M80 430H1120" stroke="white" stroke-opacity="0.16"/>
    <path d="M80 490H1120" stroke="white" stroke-opacity="0.16"/>

    <path d="M140 40V520" stroke="white" stroke-opacity="0.16"/>
    <path d="M260 40V520" stroke="white" stroke-opacity="0.12"/>
    <path d="M380 40V520" stroke="white" stroke-opacity="0.12"/>
    <path d="M500 40V520" stroke="white" stroke-opacity="0.12"/>
    <path d="M620 40V520" stroke="white" stroke-opacity="0.12"/>
    <path d="M740 40V520" stroke="white" stroke-opacity="0.12"/>
    <path d="M860 40V520" stroke="white" stroke-opacity="0.12"/>
    <path d="M980 40V520" stroke="white" stroke-opacity="0.12"/>
  </g>

  <!-- Trend Line -->
  <path
    d="M120 420 C 200 360, 260 380, 330 320 C 400 260, 450 280, 520 230 C 600 170, 700 220, 780 160 C 860 100, 920 160, 1000 120 C 1060 92, 1100 110, 1080 100"
    stroke="url(#line)"
    stroke-width="6"
    stroke-linecap="round"
    filter="url(#soft)"
  />

  <!-- Bars -->
  <g opacity="0.95">
    <rect x="180" y="360" width="44" height="110" rx="14" fill="#FF003C" fill-opacity="0.20" stroke="white" stroke-opacity="0.16"/>
    <rect x="250" y="320" width="44" height="150" rx="14" fill="#FF003C" fill-opacity="0.24" stroke="white" stroke-opacity="0.16"/>
    <rect x="320" y="380" width="44" height="90" rx="14" fill="#FF003C" fill-opacity="0.16" stroke="white" stroke-opacity="0.16"/>
    <rect x="390" y="300" width="44" height="170" rx="14" fill="#FF003C" fill-opacity="0.26" stroke="white" stroke-opacity="0.16"/>
    <rect x="460" y="340" width="44" height="130" rx="14" fill="#FF003C" fill-opacity="0.22" stroke="white" stroke-opacity="0.16"/>
  </g>

  <!-- AI chip -->
  <g>
    <rect x="760" y="64" width="360" height="96" rx="24" fill="white" fill-opacity="0.06" stroke="white" stroke-opacity="0.14"/>
    <circle cx="800" cy="112" r="18" fill="#FF003C" fill-opacity="0.35"/>
    <path d="M796 103 L814 112 L796 121 Z" fill="white" fill-opacity="0.92"/>
    <text x="832" y="106" fill="white" fill-opacity="0.92" font-family="Inter, Arial" font-size="18" font-weight="700">AI Trend Engine</text>
    <text x="832" y="132" fill="white" fill-opacity="0.62" font-family="Inter, Arial" font-size="14">velocity " retention " engagement</text>
  </g>

  <!-- KPI card -->
  <g>
    <rect x="760" y="190" width="360" height="154" rx="24" fill="white" fill-opacity="0.05" stroke="white" stroke-opacity="0.12"/>
    <text x="792" y="238" fill="white" fill-opacity="0.64" font-family="Inter, Arial" font-size="14">Realtime Score</text>
    <text x="792" y="296" fill="white" fill-opacity="0.92" font-family="Space Grotesk, Inter, Arial" font-size="54" font-weight="800">86</text>
    <text x="900" y="296" fill="white" fill-opacity="0.52" font-family="Inter, Arial" font-size="14">/ 100</text>
    <rect x="792" y="312" width="296" height="12" rx="999" fill="white" fill-opacity="0.08" stroke="white" stroke-opacity="0.10"/>
    <rect x="792" y="312" width="254" height="12" rx="999" fill="#FF003C" fill-opacity="0.70"/>
  </g>

  <!-- Footer label -->
  <text x="84" y="520" fill="white" fill-opacity="0.55" font-family="Inter, Arial" font-size="14">
    YouTube Trending Analytics " Futuristic UI Preview
  </text>
</svg>

